HIERARCHY
ROOT __0
{
	OFFSET 0.0 0.0 0.0
	CHANNELS 0
	JOINT root
	{
		OFFSET 0.000000 0.000000 0.686332
		CHANNELS 6 Xposition Yposition Zposition Xrotation Yrotation Zrotation
		JOINT stomach
		{
			OFFSET -0.000000 -0.009852 0.148941
			CHANNELS 3 Xrotation Yrotation Zrotation
			JOINT chest
			{
				OFFSET 0.000000 0.009852 0.193749
				CHANNELS 3 Xrotation Yrotation Zrotation
				JOINT neck
				{
					OFFSET 0.000000 0.016419 0.108368
					CHANNELS 3 Xrotation Yrotation Zrotation
					JOINT head
					{
						OFFSET 0.000000 0.003284 0.065678
						CHANNELS 3 Xrotation Yrotation Zrotation
						End Site
						{
							OFFSET 0.000000 -0.006568 0.144491
						}
					}
				}
				JOINT shoulder.l
				{
					OFFSET 0.049258 0.016419 0.064433
					CHANNELS 6 Xposition Yposition Zposition Xrotation Yrotation Zrotation
					JOINT upperArm.l
					{
						OFFSET 0.078005 0.002356 -0.003479
						CHANNELS 3 Xrotation Yrotation Zrotation
						JOINT lowerArm.l
						{
							OFFSET 0.102116 0.009832 -0.170630
							CHANNELS 3 Xrotation Yrotation Zrotation
							JOINT hand.l
							{
								OFFSET 0.093442 -0.009832 -0.155603
								CHANNELS 3 Xrotation Yrotation Zrotation
								JOINT pinky.1.l
								{
									OFFSET 0.032886 0.037117 -0.043691
									CHANNELS 6 Xposition Yposition Zposition Xrotation Yrotation Zrotation
									JOINT pinky.2.l
									{
										OFFSET 0.013770 0.002914 -0.026772
										CHANNELS 3 Xrotation Yrotation Zrotation
										JOINT pinky.3.l
										{
											OFFSET 0.013770 0.002152 -0.022966
											CHANNELS 3 Xrotation Yrotation Zrotation
											End Site
											{
												OFFSET 0.013770 0.002914 -0.026772
											}
										}
									}
								}
								JOINT ring.1.l
								{
									OFFSET 0.040882 0.020425 -0.056191
									CHANNELS 6 Xposition Yposition Zposition Xrotation Yrotation Zrotation
									JOINT ring.2.l
									{
										OFFSET 0.013770 0.002914 -0.026773
										CHANNELS 3 Xrotation Yrotation Zrotation
										JOINT ring.3.l
										{
											OFFSET 0.013770 0.000630 -0.024489
											CHANNELS 3 Xrotation Yrotation Zrotation
											End Site
											{
												OFFSET 0.013770 0.002914 -0.026772
											}
										}
									}
								}
								JOINT middle.1.l
								{
									OFFSET 0.038217 0.005622 -0.058622
									CHANNELS 6 Xposition Yposition Zposition Xrotation Yrotation Zrotation
									JOINT middle.2.l
									{
										OFFSET 0.018656 0.000761 -0.027137
										CHANNELS 3 Xrotation Yrotation Zrotation
										JOINT middle.3.l
										{
											OFFSET 0.013921 0.000000 -0.024966
											CHANNELS 3 Xrotation Yrotation Zrotation
											End Site
											{
												OFFSET 0.018657 0.002284 -0.035511
											}
										}
									}
								}
								JOINT index.1.l
								{
									OFFSET 0.030221 -0.008419 -0.052973
									CHANNELS 6 Xposition Yposition Zposition Xrotation Yrotation Zrotation
									JOINT index.2.l
									{
										OFFSET 0.015991 -0.001523 -0.026523
										CHANNELS 3 Xrotation Yrotation Zrotation
										JOINT index.3.l
										{
											OFFSET 0.015991 -0.000761 -0.023478
											CHANNELS 3 Xrotation Yrotation Zrotation
											End Site
											{
												OFFSET 0.015991 0.000000 -0.031091
											}
										}
									}
								}
								JOINT thumb.1.l
								{
									OFFSET -0.000231 -0.020189 -0.000927
									CHANNELS 6 Xposition Yposition Zposition Xrotation Yrotation Zrotation
									JOINT thumb.2.l
									{
										OFFSET 0.017990 -0.019907 -0.028663
										CHANNELS 3 Xrotation Yrotation Zrotation
										End Site
										{
											OFFSET 0.014833 -0.018329 -0.023927
										}
									}
								}
							}
						}
					}
				}
				JOINT shoulder.r
				{
					OFFSET -0.049258 0.016419 0.064433
					CHANNELS 6 Xposition Yposition Zposition Xrotation Yrotation Zrotation
					JOINT upperArm.r
					{
						OFFSET -0.078005 0.002356 -0.003479
						CHANNELS 3 Xrotation Yrotation Zrotation
						JOINT lowerArm.r
						{
							OFFSET -0.102116 0.009832 -0.170630
							CHANNELS 3 Xrotation Yrotation Zrotation
							JOINT hand.r
							{
								OFFSET -0.093442 -0.009832 -0.155603
								CHANNELS 3 Xrotation Yrotation Zrotation
								JOINT pinky.1.r
								{
									OFFSET -0.032886 0.037117 -0.043691
									CHANNELS 6 Xposition Yposition Zposition Xrotation Yrotation Zrotation
									JOINT pinky.2.r
									{
										OFFSET -0.013770 0.002914 -0.026772
										CHANNELS 3 Xrotation Yrotation Zrotation
										JOINT pinky.3.r
										{
											OFFSET -0.013770 0.002152 -0.022966
											CHANNELS 3 Xrotation Yrotation Zrotation
											End Site
											{
												OFFSET -0.013770 0.002914 -0.026772
											}
										}
									}
								}
								JOINT ring.1.r
								{
									OFFSET -0.040882 0.020425 -0.056191
									CHANNELS 6 Xposition Yposition Zposition Xrotation Yrotation Zrotation
									JOINT ring.2.r
									{
										OFFSET -0.013770 0.002914 -0.026773
										CHANNELS 3 Xrotation Yrotation Zrotation
										JOINT ring.3.r
										{
											OFFSET -0.013770 0.000630 -0.024489
											CHANNELS 3 Xrotation Yrotation Zrotation
											End Site
											{
												OFFSET -0.013770 0.002914 -0.026772
											}
										}
									}
								}
								JOINT middle.1.r
								{
									OFFSET -0.038217 0.005622 -0.058622
									CHANNELS 6 Xposition Yposition Zposition Xrotation Yrotation Zrotation
									JOINT middle.2.r
									{
										OFFSET -0.018656 0.000761 -0.027137
										CHANNELS 3 Xrotation Yrotation Zrotation
										JOINT middle.3.r
										{
											OFFSET -0.013921 0.000000 -0.024966
											CHANNELS 3 Xrotation Yrotation Zrotation
											End Site
											{
												OFFSET -0.018657 0.002284 -0.035511
											}
										}
									}
								}
								JOINT index.1.r
								{
									OFFSET -0.030221 -0.008419 -0.052973
									CHANNELS 6 Xposition Yposition Zposition Xrotation Yrotation Zrotation
									JOINT index.2.r
									{
										OFFSET -0.015991 -0.001523 -0.026523
										CHANNELS 3 Xrotation Yrotation Zrotation
										JOINT index.3.r
										{
											OFFSET -0.015991 -0.000761 -0.023478
											CHANNELS 3 Xrotation Yrotation Zrotation
											End Site
											{
												OFFSET -0.015991 0.000000 -0.031091
											}
										}
									}
								}
								JOINT thumb.1.r
								{
									OFFSET 0.000231 -0.020189 -0.000927
									CHANNELS 6 Xposition Yposition Zposition Xrotation Yrotation Zrotation
									JOINT thumb.2.r
									{
										OFFSET -0.017990 -0.019907 -0.028663
										CHANNELS 3 Xrotation Yrotation Zrotation
										End Site
										{
											OFFSET -0.014833 -0.018329 -0.023927
										}
									}
								}
							}
						}
					}
				}
			}
		}
		JOINT upperLeg.l
		{
			OFFSET 0.072245 0.019703 0.021128
			CHANNELS 6 Xposition Yposition Zposition Xrotation Yrotation Zrotation
			JOINT lowerLeg.l
			{
				OFFSET 0.003284 -0.040605 -0.330352
				CHANNELS 3 Xrotation Yrotation Zrotation
				JOINT ankle.l
				{
					OFFSET -0.003284 0.018125 -0.300539
					CHANNELS 3 Xrotation Yrotation Zrotation
					JOINT foot.l
					{
						OFFSET 0.000000 -0.036630 -0.051908
						CHANNELS 3 Xrotation Yrotation Zrotation
						End Site
						{
							OFFSET 0.000000 -0.128072 -0.006568
						}
					}
				}
			}
		}
		JOINT upperLeg.r
		{
			OFFSET -0.072245 0.019703 0.021128
			CHANNELS 6 Xposition Yposition Zposition Xrotation Yrotation Zrotation
			JOINT lowerLeg.r
			{
				OFFSET -0.003284 -0.040605 -0.330352
				CHANNELS 3 Xrotation Yrotation Zrotation
				JOINT ankle.r
				{
					OFFSET 0.003284 0.018125 -0.300539
					CHANNELS 3 Xrotation Yrotation Zrotation
					JOINT foot.r
					{
						OFFSET 0.000000 -0.036630 -0.051908
						CHANNELS 3 Xrotation Yrotation Zrotation
						End Site
						{
							OFFSET 0.000000 -0.128072 -0.006568
						}
					}
				}
			}
		}
	}
	JOINT elbowTarget.l
	{
		OFFSET 0.228700 0.549278 0.936960
		CHANNELS 6 Xposition Yposition Zposition Xrotation Yrotation Zrotation
		End Site
		{
			OFFSET -0.001542 0.069128 0.002999
		}
	}
	JOINT handIK.l
	{
		OFFSET 0.322822 0.018775 0.763744
		CHANNELS 6 Xposition Yposition Zposition Xrotation Yrotation Zrotation
		End Site
		{
			OFFSET 0.063774 0.014568 0.037212
		}
	}
	JOINT kneeTarget.l
	{
		OFFSET 0.075529 -0.787760 0.375529
		CHANNELS 6 Xposition Yposition Zposition Xrotation Yrotation Zrotation
		End Site
		{
			OFFSET 0.000000 -0.104887 -0.002914
		}
	}
	JOINT footIK.l
	{
		OFFSET 0.072245 0.009852 0.073412
		CHANNELS 6 Xposition Yposition Zposition Xrotation Yrotation Zrotation
		End Site
		{
			OFFSET 0.000000 0.134022 0.000000
		}
	}
	JOINT elbowTarget.r
	{
		OFFSET -0.228700 0.549278 0.936960
		CHANNELS 6 Xposition Yposition Zposition Xrotation Yrotation Zrotation
		End Site
		{
			OFFSET 0.001542 0.069128 0.002999
		}
	}
	JOINT handIK.r
	{
		OFFSET -0.322822 0.018775 0.763744
		CHANNELS 6 Xposition Yposition Zposition Xrotation Yrotation Zrotation
		End Site
		{
			OFFSET -0.063774 0.014568 0.037212
		}
	}
	JOINT kneeTarget.r
	{
		OFFSET -0.075529 -0.787760 0.375529
		CHANNELS 6 Xposition Yposition Zposition Xrotation Yrotation Zrotation
		End Site
		{
			OFFSET 0.000000 -0.104887 -0.002914
		}
	}
	JOINT footIK.r
	{
		OFFSET -0.072245 0.009852 0.073412
		CHANNELS 6 Xposition Yposition Zposition Xrotation Yrotation Zrotation
		End Site
		{
			OFFSET 0.000000 0.134022 0.000000
		}
	}
}
MOTION
Frames: 4
Frame Time: 0.041667
-0.000000 0.000000 0.656975 -0.000000 0.000000 -0.000000 0.000000 0.000000 -0.000000 0.000000 0.000000 -0.000000 0.000000 0.000000 0.000000 -0.000000 0.000000 0.000000 0.049258 0.016419 0.064433 0.000000 -0.000000 -0.000000 66.356504 22.520549 -9.930400 -61.629268 18.356996 -32.257696 -0.000000 0.000004 -0.000001 0.032886 0.037117 -0.043691 0.000001 -0.000003 0.000000 0.000003 -0.000003 -0.000001 -0.000000 0.000002 -0.000001 0.040882 0.020425 -0.056191 0.000002 -0.000007 0.000001 -0.000000 -0.000001 -0.000001 0.000000 0.000000 0.000001 0.038217 0.005622 -0.058622 0.000001 -0.000006 -0.000000 0.000001 -0.000003 -0.000001 0.000000 0.000003 0.000001 0.030221 -0.008419 -0.052973 -0.000000 -0.000003 -0.000002 0.000001 0.000002 0.000001 0.000000 0.000001 -0.000002 -0.000231 -0.020189 -0.000927 -0.000003 -0.000003 0.000008 -0.000001 -0.000000 -0.000000 -0.049258 0.016419 0.064433 -0.000000 -0.000000 0.000000 6.357926 -25.718273 19.618550 -47.701543 -11.019896 26.559973 0.000000 0.000000 -0.000001 -0.032886 0.037117 -0.043691 -0.000001 0.000002 -0.000003 -11.811943 -36.261870 -12.690699 -29.861095 -55.746710 -31.139457 -0.040882 0.020425 -0.056191 -0.000002 -0.000002 0.000000 -9.945462 -32.617988 -10.748909 -23.838926 -51.366011 -25.023935 -0.038217 0.005622 -0.058622 -0.000001 0.000003 -0.000002 -10.542758 -33.839476 -11.371613 -37.118383 -59.505154 -38.484021 -0.030221 -0.008419 -0.052973 0.000000 0.000000 0.000002 -20.164313 -47.879534 -21.277930 -33.480443 -31.868638 -18.749563 0.000231 -0.020189 -0.000927 -0.000005 0.000001 0.000001 -0.000002 0.000005 0.000001 0.072245 0.019703 0.021128 -12.137151 0.305318 0.845740 -4.491340 -0.511728 -0.001844 0.000000 -0.000000 0.000000 0.000004 -0.000000 -0.000000 -0.072245 0.019703 0.021128 6.429625 3.227474 -0.175757 55.640698 -5.269722 3.026961 -0.000003 0.000000 0.000000 0.000001 -0.000000 0.000000 0.200597 0.549278 0.936960 -0.000000 0.000000 -0.000000 0.135653 0.145975 0.800890 -0.000001 0.000001 -0.000000 0.075529 -0.787760 0.375529 0.000000 0.000000 -0.000000 0.072245 -0.158053 0.070481 -0.000000 0.000000 -0.000000 -0.266720 0.549278 0.936960 -0.000000 0.000000 0.000000 -0.102926 -0.141238 0.779637 -0.000001 -0.000001 -0.000000 -0.075529 -0.787760 0.375529 0.000000 -0.000000 -0.000000 -0.072245 0.289117 0.220606 -0.000000 0.000000 -0.000000 
-0.000000 0.000000 0.660383 -0.000000 0.000000 -0.000000 0.000000 0.000000 -0.000000 0.000000 0.000000 -0.000000 0.000000 0.000000 0.000000 -0.000000 0.000000 0.000000 0.049258 0.016419 0.064433 0.000000 -0.000000 -0.000000 64.083744 22.512648 -9.249855 -61.332633 18.186169 -32.153252 0.000003 0.000002 0.000002 0.032886 0.037117 -0.043691 0.000002 0.000000 0.000000 0.000000 0.000000 0.000000 0.000001 -0.000005 -0.000000 0.040882 0.020425 -0.056191 0.000002 -0.000003 0.000003 -0.000001 0.000000 -0.000003 0.000000 0.000000 -0.000001 0.038217 0.005622 -0.058622 0.000001 -0.000001 -0.000000 -0.000000 0.000001 -0.000000 -0.000001 0.000001 0.000001 0.030221 -0.008419 -0.052973 0.000001 0.000003 -0.000001 -0.000002 0.000002 -0.000002 -0.000001 0.000005 -0.000000 -0.000231 -0.020189 -0.000927 -0.000004 0.000002 0.000006 0.000002 0.000002 0.000002 -0.049258 0.016419 0.064433 -0.000000 -0.000000 0.000000 6.286225 -25.260956 19.430587 -46.061136 -10.260995 25.794807 0.000003 -0.000001 -0.000000 -0.032886 0.037117 -0.043691 -0.000002 0.000003 -0.000003 -11.811948 -36.261867 -12.690696 -29.861088 -55.746699 -31.139447 -0.040882 0.020425 -0.056191 -0.000002 0.000001 -0.000001 -9.945457 -32.617985 -10.748908 -23.838919 -51.365997 -25.023937 -0.038217 0.005622 -0.058622 0.000002 0.000003 -0.000003 -10.542756 -33.839472 -11.371614 -37.118383 -59.505161 -38.484032 -0.030221 -0.008419 -0.052973 0.000001 0.000007 -0.000000 -20.164315 -47.879537 -21.277938 -33.480447 -31.868638 -18.749557 0.000231 -0.020189 -0.000927 -0.000003 0.000005 -0.000002 -0.000001 0.000002 -0.000000 0.072245 0.019703 0.021128 -13.009127 0.065961 0.856221 -0.578708 -0.065936 0.002002 -0.000002 0.000000 -0.000000 0.000000 0.000000 -0.000000 -0.072245 0.019703 0.021128 4.902999 3.285472 -0.148310 56.729598 -5.334484 3.131967 -0.000003 0.000000 -0.000000 -0.000000 -0.000000 0.000000 0.200597 0.549278 0.936960 -0.000000 0.000000 -0.000000 0.137929 0.137953 0.799719 -0.000001 0.000001 -0.000000 0.075529 -0.787760 0.375529 0.000000 0.000000 -0.000000 0.072245 -0.147208 0.072387 -0.000000 0.000000 -0.000000 -0.266720 0.549278 0.936960 -0.000000 0.000000 0.000000 -0.106949 -0.138394 0.777044 -0.000001 -0.000001 -0.000000 -0.075529 -0.787760 0.375529 0.000000 -0.000000 -0.000000 -0.072245 0.279263 0.222144 -0.000000 0.000000 -0.000000 
-0.000000 0.000000 0.665924 -0.000000 0.000000 -0.000000 0.000000 0.000000 -0.000000 0.000000 0.000000 -0.000000 0.000000 0.000000 0.000000 -0.000000 0.000000 0.000000 0.049258 0.016419 0.064433 0.000000 -0.000000 -0.000000 60.249474 22.443945 -8.259206 -60.647859 17.793911 -31.909056 0.000001 0.000002 0.000000 0.032886 0.037117 -0.043691 -0.000000 0.000002 0.000001 0.000000 -0.000002 0.000000 -0.000001 0.000004 -0.000002 0.040882 0.020425 -0.056191 0.000000 0.000002 0.000001 -0.000001 0.000002 0.000001 -0.000001 -0.000002 0.000000 0.038217 0.005622 -0.058622 0.000002 -0.000004 0.000001 -0.000002 0.000002 0.000001 -0.000002 -0.000002 0.000001 0.030221 -0.008419 -0.052973 0.000001 0.000002 -0.000002 -0.000003 0.000002 0.000001 -0.000001 0.000001 -0.000003 -0.000231 -0.020189 -0.000927 -0.000001 0.000001 0.000003 -0.000004 -0.000000 0.000001 -0.049258 0.016419 0.064433 -0.000000 -0.000000 0.000000 6.123833 -24.589420 19.139206 -43.251685 -9.018911 24.445551 -0.000000 -0.000001 -0.000000 -0.032886 0.037117 -0.043691 -0.000003 -0.000002 -0.000004 -11.811948 -36.261874 -12.690694 -29.861106 -55.746710 -31.139447 -0.040882 0.020425 -0.056191 -0.000002 -0.000000 -0.000005 -9.945460 -32.617985 -10.748906 -23.838921 -51.366004 -25.023938 -0.038217 0.005622 -0.058622 -0.000004 0.000006 -0.000004 -10.542756 -33.839469 -11.371614 -37.118386 -59.505154 -38.484021 -0.030221 -0.008419 -0.052973 -0.000005 0.000001 0.000002 -20.164318 -47.879541 -21.277938 -33.480443 -31.868631 -18.749559 0.000231 -0.020189 -0.000927 -0.000009 -0.000008 -0.000003 0.000005 0.000005 0.000001 0.072245 0.019703 0.021128 -13.335835 -0.191148 0.857150 3.623450 0.411913 -0.027753 -0.000003 0.000000 0.000000 -0.000002 -0.000000 0.000000 -0.072245 0.019703 0.021128 2.439117 3.359007 -0.112357 58.119876 -5.414244 3.267781 -0.000003 0.000000 0.000000 0.000003 0.000000 0.000000 0.200597 0.549278 0.936960 -0.000000 0.000000 -0.000000 0.141613 0.124469 0.797716 -0.000001 0.000001 -0.000000 0.075529 -0.787760 0.375529 0.000000 0.000000 -0.000000 0.072245 -0.128868 0.075719 -0.000000 0.000000 -0.000000 -0.266720 0.549278 0.936960 -0.000000 0.000000 0.000000 -0.113508 -0.133328 0.772926 -0.000001 -0.000001 -0.000000 -0.075529 -0.787760 0.375529 0.000000 -0.000000 -0.000000 -0.072245 0.262533 0.223431 -0.000000 0.000000 -0.000000 
-0.000000 0.000000 0.673172 -0.000000 0.000000 -0.000000 0.000000 0.000000 -0.000000 0.000000 0.000000 -0.000000 0.000000 0.000000 0.000000 -0.000000 0.000000 0.000000 0.049258 0.016419 0.064433 0.000000 -0.000000 -0.000000 54.966009 22.260766 -7.195061 -59.298773 17.029818 -31.415506 0.000002 0.000000 -0.000000 0.032886 0.037117 -0.043691 -0.000000 0.000004 0.000002 0.000000 0.000003 -0.000001 -0.000003 0.000002 -0.000003 0.040882 0.020425 -0.056191 -0.000000 0.000000 0.000002 -0.000003 0.000002 -0.000003 0.000000 0.000002 0.000000 0.038217 0.005622 -0.058622 -0.000001 -0.000001 0.000002 0.000000 -0.000003 0.000002 -0.000001 0.000001 -0.000001 0.030221 -0.008419 -0.052973 -0.000001 0.000004 0.000000 -0.000002 0.000008 0.000001 0.000000 -0.000000 -0.000003 -0.000231 -0.020189 -0.000927 -0.000003 0.000003 0.000004 -0.000003 0.000001 0.000001 -0.049258 0.016419 0.064433 -0.000000 -0.000000 0.000000 5.796347 -23.839631 18.790224 -39.259494 -7.383379 22.450861 -0.000003 -0.000001 0.000000 -0.032886 0.037117 -0.043691 0.000002 0.000002 -0.000000 -11.811946 -36.261870 -12.690695 -29.861106 -55.746710 -31.139454 -0.040882 0.020425 -0.056191 -0.000000 -0.000000 -0.000003 -9.945460 -32.617985 -10.748909 -23.838921 -51.366007 -25.023945 -0.038217 0.005622 -0.058622 0.000002 -0.000000 0.000000 -10.542758 -33.839472 -11.371615 -37.118393 -59.505161 -38.484032 -0.030221 -0.008419 -0.052973 0.000001 0.000002 0.000001 -20.164308 -47.879534 -21.277933 -33.480447 -31.868631 -18.749566 0.000231 -0.020189 -0.000927 -0.000004 0.000001 0.000001 -0.000001 -0.000002 0.000003 0.072245 0.019703 0.021128 -12.895788 -0.431222 0.848140 7.554675 0.855802 -0.087220 0.000000 0.000000 0.000000 -0.000001 -0.000000 -0.000000 -0.072245 0.019703 0.021128 -0.835334 3.437457 -0.072927 59.614827 -5.496298 3.415924 -0.000005 -0.000000 -0.000000 -0.000005 -0.000001 -0.000000 0.200597 0.549278 0.936960 -0.000000 0.000000 -0.000000 0.146402 0.106034 0.794917 -0.000001 0.000001 -0.000000 0.075529 -0.787760 0.375529 0.000000 0.000000 -0.000000 0.072245 -0.103593 0.080500 -0.000000 0.000000 -0.000000 -0.266720 0.549278 0.936960 -0.000000 0.000000 0.000000 -0.122117 -0.125903 0.767720 -0.000001 -0.000001 -0.000000 -0.075529 -0.787760 0.375529 0.000000 -0.000000 -0.000000 -0.072245 0.239365 0.224440 -0.000000 0.000000 -0.000000 
